<?xml version="1.0" encoding="utf-8"?>
<!-- Generator: Adobe Illustrator 16.0.0, SVG Export Plug-In . SVG Version: 6.00 Build 0)  -->
<!DOCTYPE svg PUBLIC "-//W3C//DTD SVG 1.1//EN" "http://www.w3.org/Graphics/SVG/1.1/DTD/svg11.dtd">
<svg version="1.1" id="图层_1" xmlns="http://www.w3.org/2000/svg" xmlns:xlink="http://www.w3.org/1999/xlink" x="0px" y="0px"
	 width="118.5px" height="141.25px" viewBox="0 0 118.5 141.25" enable-background="new 0 0 118.5 141.25" xml:space="preserve">
<g>
	<g>
		<path fill-rule="evenodd" clip-rule="evenodd" fill="#FEFDFD" d="M19.28,146.72c-11.4,0-22.8-0.009-34.2,0.02
			c-0.716,0.002-0.86-0.144-0.859-0.86c0.021-49.6,0.021-99.2,0-148.8c0-0.715,0.144-0.86,0.859-0.859
			c49.6,0.021,99.2,0.021,148.8,0c0.715,0,0.86,0.143,0.859,0.859c-0.021,49.6-0.022,99.2,0.006,148.8
			c0,0.881-0.339,0.852-0.985,0.852c-37.28-0.013-74.56-0.011-111.84-0.011c-0.017-0.313,0.028-0.671-0.435-0.698
			c-0.484-0.028-0.733,0.221-0.765,0.698c-0.4,0-0.8,0-1.2,0c-0.066-0.282,0.309-0.539,0.052-0.854
			C19.098,146.035,19.356,146.436,19.28,146.72z M52.857,1.115c-0.599-0.357-1.255-0.402-1.929-0.354
			c-0.235-0.041-0.47-0.082-0.705-0.122C50.01,0.436,49.77,0.45,49.519,0.553c-1.279-0.134-2.558-0.127-3.836-0.007
			c-0.381-0.076-0.76-0.138-1.076,0.178c-0.121,0.018-0.242,0.037-0.362,0.054c-0.181-0.133-0.333-0.074-0.474,0.069
			c-0.155,0.03-0.31,0.059-0.464,0.089c-0.339-0.088-0.625,0.028-0.888,0.231c-0.117,0.027-0.233,0.055-0.35,0.082
			c-0.208-0.049-0.401-0.06-0.497,0.188c-0.491,0.416-1.191,0.106-1.692,0.489c-3.139,1.312-5.789,3.305-8.029,5.842
			c-5.757,6.521-8.863,14.353-11.069,22.608c-0.7,2.619-1.204,5.291-1.798,7.939c-0.479,0.16-0.78,0.556-1.114,0.889
			C6.255,50.792,0.208,64.779-0.104,81.192c-0.135,7.056,1.067,13.927,3.432,20.568c1.024,2.877,2.142,5.74,3.834,8.322
			c1.963,4.142,4.696,7.769,7.74,11.138c9.73,10.77,21.77,17.278,36.182,19.311c11.239,1.584,22.042,0.001,32.392-4.584
			c8.036-3.56,14.93-8.717,20.658-15.386c2.723-3.17,5.25-6.496,7.065-10.298c0.323-0.541,0.682-1.063,0.964-1.624
			c3.344-6.66,5.371-13.693,6.113-21.117c0.915-9.148-0.32-18.004-3.482-26.603c-2.105-5.727-5.097-10.974-8.885-15.758
			c-2.151-2.716-4.413-5.332-7.132-7.51c-1.345-4.511-3.035-8.862-5.532-12.891c-3.312-5.342-7.223-10.099-12.628-13.448
			c-2.408-1.492-4.948-2.72-7.814-3.085c-0.476-0.104-0.933-0.317-1.439-0.239c-0.228-0.198-0.477-0.175-0.734-0.074
			c-0.793-0.168-1.586-0.206-2.38,0c-0.092-0.015-0.186-0.029-0.278-0.044c-0.069-0.043-0.138-0.086-0.207-0.129
			c-3.052-2.139-6.344-3.821-9.818-5.156c-0.167-0.041-0.335-0.082-0.503-0.124c-0.045-0.074-0.112-0.111-0.199-0.112
			c-0.139-0.203-0.346-0.181-0.551-0.166c-0.185-0.188-0.417-0.259-0.673-0.263c-0.311-0.093-0.622-0.187-0.932-0.28
			C55,1.62,54.912,1.597,54.823,1.573c-0.262-0.153-0.535-0.266-0.848-0.232c-0.06,0.026-0.12,0.052-0.182,0.082
			C53.57,1.049,53.186,1.166,52.857,1.115z M20.174,145.138c1.064,0.035,2.368-0.709,2.353,1.133
			C22.678,144.699,22.032,144.37,20.174,145.138z"/>
		<path fill-rule="evenodd" clip-rule="evenodd" fill="#EDEDED" d="M20.72,146.72c0.032-0.477,0.281-0.726,0.765-0.698
			c0.463,0.026,0.418,0.385,0.435,0.698C21.52,146.72,21.12,146.72,20.72,146.72z"/>
		<path fill-rule="evenodd" clip-rule="evenodd" fill="#EDEDED" d="M19.28,146.72c0.076-0.285-0.182-0.685,0.292-0.854
			c0.257,0.315-0.118,0.571-0.052,0.854C19.44,146.72,19.36,146.72,19.28,146.72z"/>
		<path fill-rule="evenodd" clip-rule="evenodd" fill="#3E3E3E" d="M56.021,1.923c0.257,0.004,0.488,0.074,0.673,0.263
			c0.04,0.17,0.044,0.394,0.258,0.412c0.09,0.008,0.194-0.159,0.292-0.247c0.087,0,0.153,0.038,0.199,0.112
			c0.086,0.375,0.217,0.567,0.503,0.124c3.475,1.334,6.766,3.017,9.818,5.156c-0.002,0.085-0.005,0.17-0.007,0.256
			c-0.018,0.035-0.035,0.069-0.053,0.104c0.019-0.033,0.037-0.067,0.056-0.101c0.07-0.043,0.141-0.087,0.211-0.13
			c0.093,0.015,0.186,0.029,0.278,0.044c0.793,0.534,1.587,0.532,2.38,0c0.257-0.102,0.506-0.124,0.734,0.074
			c0.342,0.908,0.9,0.519,1.439,0.239c2.866,0.365,5.406,1.593,7.814,3.085c5.405,3.349,9.316,8.105,12.628,13.448
			c2.498,4.029,4.188,8.379,5.532,12.891c0.722,3.555,1.485,7.108,1.807,10.725c0.544,6.122,0.872,12.25,0.598,18.406
			c-0.173,3.904-0.302,7.812-0.623,11.705c-0.499,6.039-1.319,12.042-2.183,18.038c-1.138-0.056-2.054-0.719-3.074-1.102
			c-4.152-1.56-8.425-2.741-12.679-3.983c-0.815-0.238-1.857,0.072-2.457-0.824c0.489-0.089,0.767-0.333,0.803-0.875
			c0.05-0.75,0.044-1.54,0.285-2.235c1.016-2.93,1.283-6.015,1.798-9.031c0.706-4.13,0.978-8.335,1.435-12.508
			c0.082-0.747-0.255-0.958-0.925-0.698c-0.26,0.1-0.499,0.332-0.756,0.347c-0.952,0.056-1.844,1.027-2.853,0.202
			c0.951-1.825,2.027-3.591,2.717-5.542c1.506-4.257,3.579-8.301,4.766-12.678c0.699,0.237,0.516-0.332,0.472-0.597
			c-0.13-0.788,0.412-1.676-0.342-2.368c-0.591-1.24-1.699-1.165-2.668-0.811c-1.17,0.427-1.386-0.09-1.466-1.03
			c-0.197-2.289-0.909-4.449-1.773-6.551c-3.834-9.323-10.913-14.832-20.512-17.346c-0.366-0.096-0.78-0.319-1.049,0.188
			c-1.862,1.4-3.361,3.162-4.854,4.922c-5.268,6.214-9.362,13.157-12.504,20.646c-1.987,4.735-4.028,9.463-4.64,14.665
			c-0.364,3.091-0.428,6.05,1.384,8.757c-0.75,3.278,0.093,6.56,0.041,9.843c-0.018,1.113,0.06,2.289,0.186,3.429
			c0.316,2.864,0.64,5.727,0.96,8.59c-1.337,0.623-2.784,0.911-4.185,1.334c-3.613,1.092-7.274,2.018-10.839,3.281
			c-1.604,0.569-3.109,1.414-4.802,1.733c-0.077-0.432-0.118-0.874-0.234-1.294c-1.187-4.28-1.868-8.662-2.645-13.025
			c0.031-1.488-0.255-2.931-0.624-4.362c-0.05-0.87-0.1-1.74-0.15-2.611c0.113-0.42,0.231-0.841-0.106-1.223
			c0.052-1.291-0.344-2.569-0.099-3.865c0.505-0.137,0.368-0.557,0.369-0.89c0.008-3.474,0.008-6.947,0-10.42
			c-0.001-0.333,0.14-0.752-0.362-0.895c0.06-3.233,0.354-6.448,0.75-9.654c0.4-3.245,0.827-6.486,1.242-9.729
			c0.593-2.647,1.098-5.319,1.797-7.938c2.206-8.255,5.312-16.087,11.069-22.608c2.24-2.538,4.891-4.531,8.029-5.842
			c0.869,0.439,1.599,0.229,1.692-0.489c0.096-0.247,0.29-0.236,0.497-0.188c0.97,0.423,2.755,0.193,3.364-0.435
			c0.083-0.09,0.167-0.179,0.25-0.269c1.279-0.121,2.558-0.127,3.836,0.007c0,0.083,0,0.165,0.001,0.247
			c0.007,0.162-0.621,0.438,0.06,0.47c0.793,0.037,1.59,0.002,2.385-0.001l0.083-0.007l0.083,0.003
			c0.518,0.45,1.096,0.249,1.665,0.155c0.06-0.026,0.12-0.052,0.18-0.078c-0.07,0.242-0.116,0.488,0.2,0.581
			c0.314,0.093,0.542-0.028,0.649-0.349C54.912,1.597,55,1.62,55.088,1.644C55.181,2.464,55.566,2.308,56.021,1.923z"/>
		<path fill-rule="evenodd" clip-rule="evenodd" fill="#A7153E" d="M80.167,90.617c0.6,0.896,1.642,0.586,2.457,0.824
			c4.254,1.242,8.527,2.423,12.679,3.983c1.02,0.383,1.936,1.046,3.074,1.102c0.516,0.463,1.164,0.683,1.778,0.962
			c3.547,1.616,6.562,3.875,8.704,7.191c1.112,1.722,1.642,3.688,2.341,5.583c-1.815,3.803-4.342,7.128-7.065,10.298
			c-5.728,6.669-12.622,11.826-20.658,15.386c-10.351,4.586-21.153,6.169-32.392,4.584c-14.413-2.033-26.452-8.541-36.182-19.311
			c-3.044-3.369-5.777-6.997-7.74-11.139c0.448-0.299,0.474-0.812,0.609-1.256c1.504-4.926,4.661-8.417,9.242-10.674
			c1.274-0.628,2.554-1.247,3.831-1.869c1.693-0.319,3.198-1.164,4.802-1.733c3.564-1.263,7.226-2.189,10.839-3.281
			c1.401-0.423,2.847-0.711,4.185-1.335c0.864-0.082,1.699-0.276,2.544-0.484c1.405-0.345,2.853-0.516,4.283-0.761
			c-1.635,4.068-3.93,7.793-6.02,11.627c-1.568,2.877-2.939,5.843-3.316,9.16c-0.22,0.554-0.214,1.132-0.18,1.712
			c-0.238,0.568-0.246,1.135,0,1.703c-0.075,0.483-0.021,0.954,0.127,1.416c-0.057,0.189-0.052,0.364,0.119,0.499
			c0.08,0.319,0.159,0.638,0.238,0.958c-0.022,0.2-0.029,0.395,0.198,0.495c0.044,0.622,0.227,1.178,0.748,1.574
			c0.984,2.248,2.767,3.709,4.822,4.904c0.159,0.082,0.318,0.164,0.477,0.246l-0.01-0.011c1.166,0.837,2.43,1.449,3.854,1.698
			c2.716,1.123,5.58,1.575,8.474,1.929c4.873,0.596,9.534-0.365,14.083-1.956c3.337-1.167,6.297-2.994,8.125-6.144
			c2.918-5.029,1.979-10.138,0.078-15.223c-0.046-1.188-0.514-2.203-1.268-3.101c-0.656-1.964-1.747-3.713-2.728-5.516
			c-1.058-1.943-2.374-3.742-3.24-5.793c0.312,0.041,0.624,0.082,0.936,0.123C75.448,89.311,77.748,90.225,80.167,90.617z"/>
		<path fill-rule="evenodd" clip-rule="evenodd" fill="#EE275C" d="M111.2,110.263c-0.699-1.895-1.229-3.861-2.341-5.583
			c-2.142-3.316-5.156-5.576-8.704-7.191c-0.614-0.28-1.262-0.5-1.778-0.962c0.863-5.997,1.684-12,2.182-18.038
			c0.321-3.894,0.45-7.801,0.623-11.705c0.274-6.156-0.054-12.285-0.598-18.406c-0.321-3.617-1.085-7.17-1.807-10.725
			c2.72,2.178,4.981,4.793,7.132,7.51c3.789,4.785,6.78,10.031,8.885,15.758c3.162,8.599,4.396,17.455,3.482,26.603
			c-0.742,7.423-2.77,14.457-6.113,21.117C111.882,109.2,111.523,109.722,111.2,110.263z"/>
		<path fill-rule="evenodd" clip-rule="evenodd" fill="#EE275C" d="M20.844,96.283c-1.277,0.623-2.556,1.241-3.831,1.869
			c-4.582,2.257-7.738,5.749-9.242,10.674c-0.135,0.444-0.161,0.957-0.609,1.256c-1.693-2.582-2.81-5.444-3.834-8.322
			c-2.364-6.641-3.566-13.513-3.432-20.568c0.313-16.413,6.359-30.4,17.973-41.987c0.334-0.333,0.634-0.729,1.114-0.89
			c-0.415,3.242-0.841,6.483-1.241,9.728c-0.395,3.206-0.69,6.421-0.75,9.654c-0.16,1.512-0.161,3.028-0.104,4.546
			c-0.306,1.278-0.299,2.556,0.001,3.833c-0.051,1.278-0.063,2.554,0.096,3.827c-0.245,1.295,0.151,2.574,0.1,3.865
			c-0.274,0.434-0.368,0.853,0.105,1.223c0.05,0.871,0.1,1.741,0.15,2.611c-0.434,1.718-0.45,3.433-0.07,5.213
			c0.453-0.217,0.179-0.831,0.694-0.851c0.777,4.363,1.458,8.745,2.645,13.025C20.726,95.409,20.767,95.851,20.844,96.283z"/>
		<path fill-rule="evenodd" clip-rule="evenodd" fill="#2E2E2E" d="M45.433,0.815c-0.609,0.628-2.394,0.858-3.364,0.435
			c0.116-0.027,0.233-0.055,0.35-0.082c0.344,0.105,0.688,0.215,0.888-0.231c0.155-0.03,0.31-0.059,0.464-0.089
			c0.195,0.235,0.347,0.168,0.474-0.069c0.121-0.018,0.241-0.036,0.362-0.054C44.882,0.755,45.158,0.785,45.433,0.815z"/>
		<path fill-rule="evenodd" clip-rule="evenodd" fill="#2E2E2E" d="M51.965,1.269c-0.795,0.004-1.592,0.039-2.385,0.001
			c-0.681-0.032-0.052-0.309-0.06-0.47c0.243-0.015,0.515,0.09,0.703-0.161c0.235,0.041,0.47,0.082,0.705,0.122
			C51.136,1.212,51.723,0.888,51.965,1.269z"/>
		<path fill-rule="evenodd" clip-rule="evenodd" fill="#2E2E2E" d="M70.63,7.915c-0.793,0.532-1.586,0.534-2.38,0
			C69.044,7.709,69.837,7.747,70.63,7.915z"/>
		<path fill-rule="evenodd" clip-rule="evenodd" fill="#EDEDED" d="M20.174,145.138c1.858-0.768,2.503-0.439,2.353,1.133
			C22.542,144.429,21.239,145.173,20.174,145.138z"/>
		<path fill-rule="evenodd" clip-rule="evenodd" fill="#585858" d="M51.965,1.269c-0.242-0.381-0.829-0.057-1.037-0.508
			c0.673-0.047,1.33-0.002,1.929,0.354c-0.203,0.239-0.48,0.119-0.727,0.149l-0.083-0.003L51.965,1.269z"/>
		<path fill-rule="evenodd" clip-rule="evenodd" fill="#2E2E2E" d="M41.572,1.438c-0.093,0.717-0.824,0.928-1.692,0.489
			C40.38,1.543,41.081,1.854,41.572,1.438z"/>
		<path fill-rule="evenodd" clip-rule="evenodd" fill="#2E2E2E" d="M72.803,8.228c-0.539,0.279-1.097,0.669-1.439-0.239
			C71.87,7.911,72.328,8.124,72.803,8.228z"/>
		<path fill-rule="evenodd" clip-rule="evenodd" fill="#585858" d="M56.021,1.923c-0.454,0.385-0.84,0.541-0.932-0.28
			C55.399,1.737,55.71,1.83,56.021,1.923z"/>
		<path fill-rule="evenodd" clip-rule="evenodd" fill="#585858" d="M54.823,1.573c-0.106,0.321-0.334,0.442-0.649,0.349
			c-0.315-0.093-0.27-0.339-0.2-0.581C54.288,1.308,54.561,1.42,54.823,1.573z"/>
		<path fill-rule="evenodd" clip-rule="evenodd" fill="#2E2E2E" d="M52.13,1.264c0.247-0.03,0.523,0.09,0.727-0.149
			c0.329,0.051,0.713-0.066,0.937,0.306C53.227,1.513,52.648,1.714,52.13,1.264z"/>
		<path fill-rule="evenodd" clip-rule="evenodd" fill="#585858" d="M45.433,0.815c-0.275-0.03-0.551-0.06-0.826-0.09
			c0.316-0.317,0.695-0.254,1.076-0.179C45.6,0.636,45.517,0.725,45.433,0.815z"/>
		<path fill-rule="evenodd" clip-rule="evenodd" fill="#585858" d="M43.307,0.937c-0.2,0.446-0.544,0.336-0.888,0.231
			C42.682,0.965,42.968,0.849,43.307,0.937z"/>
		<path fill-rule="evenodd" clip-rule="evenodd" fill="#585858" d="M50.223,0.639C50.035,0.89,49.763,0.785,49.52,0.8
			c0-0.082-0.001-0.165-0.001-0.247C49.77,0.45,50.01,0.436,50.223,0.639z"/>
		<path fill-rule="evenodd" clip-rule="evenodd" fill="#585858" d="M57.245,2.352c-0.098,0.087-0.203,0.254-0.292,0.247
			c-0.214-0.019-0.218-0.242-0.258-0.412C56.898,2.17,57.105,2.148,57.245,2.352z"/>
		<path fill-rule="evenodd" clip-rule="evenodd" fill="#585858" d="M44.245,0.778c-0.127,0.237-0.278,0.305-0.474,0.069
			C43.911,0.705,44.064,0.646,44.245,0.778z"/>
		<path fill-rule="evenodd" clip-rule="evenodd" fill="#585858" d="M57.947,2.587c-0.287,0.444-0.417,0.251-0.503-0.124
			C57.611,2.505,57.779,2.546,57.947,2.587z"/>
		<path fill-rule="evenodd" clip-rule="evenodd" fill="#2E2E2E" d="M67.758,7.999c0.002-0.085,0.004-0.171,0.007-0.256
			c0.069,0.043,0.138,0.086,0.207,0.129c-0.07,0.043-0.141,0.087-0.211,0.13L67.758,7.999z"/>
		<path fill-rule="evenodd" clip-rule="evenodd" fill="#FCD9C1" d="M87.435,47.598c-1.187,4.377-3.26,8.421-4.766,12.678
			c-0.69,1.951-1.766,3.717-2.717,5.542c-0.253,0.353-0.512,0.701-0.758,1.058c-2.135,3.101-4.679,5.777-7.94,7.722
			c-0.97,0.578-2.14,0.768-2.992,1.566c-2.646-0.005-5.291-0.01-7.937-0.015c-0.002-18.393-0.005-36.786,0-55.179
			c0-0.644-0.039-1.271-0.231-1.887c0.269-0.507,0.683-0.283,1.049-0.188c9.599,2.514,16.678,8.023,20.512,17.346
			c0.864,2.102,1.576,4.262,1.773,6.551c0.081,0.939,0.296,1.457,1.466,1.03c0.97-0.354,2.077-0.43,2.668,0.81
			C87.693,45.628,87.54,46.612,87.435,47.598z"/>
		<path fill-rule="evenodd" clip-rule="evenodd" fill="#FACFAA" d="M60.096,19.083c0.192,0.615,0.231,1.243,0.231,1.887
			c-0.005,18.393-0.002,36.786,0,55.179c-1.589,0.134-3.144-0.352-4.738-0.243c-0.862,0.059-1.733-0.085-2.596-0.148
			c-1.08-0.08-2.295-0.524-3.271,0.427c-0.316-0.487-0.813-0.743-1.305-0.996c-3.454-1.775-6.474-4.093-8.934-7.115
			c-1.812-2.708-1.748-5.666-1.384-8.757c0.612-5.201,2.653-9.929,4.64-14.665c3.142-7.489,7.236-14.432,12.504-20.646
			C56.735,22.245,58.234,20.483,60.096,19.083z"/>
		<path fill-rule="evenodd" clip-rule="evenodd" fill="#313338" d="M68.263,76.164c0.852-0.798,2.022-0.988,2.992-1.566
			c3.261-1.945,5.805-4.622,7.94-7.722c0.246-0.357,0.505-0.705,0.758-1.058c1.009,0.826,1.901-0.146,2.853-0.202
			c0.258-0.015,0.497-0.247,0.756-0.347c0.67-0.259,1.007-0.048,0.925,0.698c-0.457,4.173-0.729,8.377-1.435,12.508
			c-0.515,3.016-0.783,6.101-1.798,9.031c-0.241,0.695-0.235,1.485-0.285,2.235c-0.036,0.542-0.314,0.786-0.803,0.875
			c-2.419-0.391-4.719-1.305-7.153-1.626c-0.312-0.041-0.624-0.082-0.936-0.123c-2.033-3.327-3.312-6.924-3.855-10.784
			C68.236,77.443,68.25,76.803,68.263,76.164z"/>
		<path fill-rule="evenodd" clip-rule="evenodd" fill="#313338" d="M39.482,68.073c2.46,3.021,5.48,5.34,8.934,7.115
			c0.492,0.252,0.989,0.508,1.305,0.996c0.166,0.474,0.332,0.948,0.498,1.422c0.21,3.969-1.124,7.559-2.723,11.084
			c-1.43,0.245-2.877,0.416-4.283,0.761c-0.845,0.208-1.68,0.402-2.544,0.484c-0.321-2.862-0.644-5.726-0.96-8.589
			c-0.126-1.14-0.204-2.315-0.186-3.429C39.576,74.633,38.732,71.352,39.482,68.073z"/>
		<path fill-rule="evenodd" clip-rule="evenodd" fill="#274238" d="M16.986,69.903c-0.159-1.272-0.147-2.549-0.096-3.827
			c0.377-1.278,0.38-2.556-0.001-3.833c-0.057-1.518-0.056-3.034,0.104-4.546c0.502,0.143,0.361,0.562,0.362,0.895
			c0.008,3.473,0.008,6.947,0,10.42C17.354,69.346,17.491,69.766,16.986,69.903z"/>
		<path fill-rule="evenodd" clip-rule="evenodd" fill="#C1224D" d="M17.964,81.963c-0.515,0.021-0.241,0.634-0.694,0.851
			c-0.379-1.781-0.364-3.496,0.07-5.213C17.709,79.033,17.995,80.475,17.964,81.963z"/>
		<path fill-rule="evenodd" clip-rule="evenodd" fill="#2E2E2E" d="M87.435,47.598c0.104-0.986,0.258-1.97,0.13-2.966
			c0.754,0.693,0.211,1.581,0.342,2.369C87.951,47.266,88.134,47.834,87.435,47.598z"/>
		<path fill-rule="evenodd" clip-rule="evenodd" fill="#C1224D" d="M17.191,74.99c-0.473-0.37-0.379-0.789-0.105-1.223
			C17.422,74.149,17.304,74.57,17.191,74.99z"/>
		<path fill-rule="evenodd" clip-rule="evenodd" fill="#2E2E2E" d="M67.761,8.002c-0.019,0.033-0.037,0.067-0.056,0.101
			c0.018-0.035,0.035-0.069,0.053-0.104L67.761,8.002z"/>
		<path fill-rule="evenodd" clip-rule="evenodd" fill="#FACFAA" d="M47.496,88.689c1.599-3.525,2.933-7.115,2.723-11.084
			c3.36,0.261,6.677,0.92,10.063,0.975c2.667,0.043,5.287-0.46,7.941-0.497c0.543,3.86,1.822,7.457,3.855,10.784
			c0.866,2.051,2.182,3.85,3.24,5.793c0.981,1.803,2.072,3.552,2.728,5.516c-0.253,0.926,0.397,2.517,1.268,3.101
			c1.901,5.085,2.84,10.194-0.078,15.223c-1.828,3.15-4.788,4.976-8.125,6.144c-4.549,1.591-9.21,2.552-14.083,1.956
			c-2.894-0.354-5.758-0.806-8.474-1.929c-1.167-0.833-2.369-1.588-3.854-1.698l0.01,0.011c-0.044-0.305-0.072-0.642-0.477-0.246
			c-2.055-1.194-3.838-2.656-4.822-4.904c-0.016-0.636,0.218-1.39-0.748-1.574c-0.228-0.101-0.22-0.295-0.198-0.495
			c0.357-0.428,0.465-0.794-0.238-0.958c-0.17-0.135-0.175-0.31-0.119-0.499c0.639-1.604,0.536-3.215,0.053-4.831
			c0.377-3.316,1.748-6.282,3.316-9.16C43.566,96.483,45.861,92.758,47.496,88.689z"/>
		<path fill-rule="evenodd" clip-rule="evenodd" fill="#FCD9C1" d="M79.313,103.277c-0.871-0.584-1.521-2.175-1.268-3.101
			C78.8,101.074,79.268,102.089,79.313,103.277z"/>
		<path fill-rule="evenodd" clip-rule="evenodd" fill="#FCD9C1" d="M38.16,109.477c0.482,1.616,0.586,3.228-0.053,4.831
			c-0.148-0.462-0.202-0.933-0.127-1.416c0.414-0.567,0.413-1.135,0-1.703C37.945,110.608,37.94,110.03,38.16,109.477z"/>
		<path fill-rule="evenodd" clip-rule="evenodd" fill="#FCD9C1" d="M44.699,122.972c1.486,0.11,2.688,0.864,3.854,1.698
			C47.129,124.421,45.864,123.81,44.699,122.972z"/>
		<path fill-rule="evenodd" clip-rule="evenodd" fill="#FACFAA" d="M37.979,111.189c0.413,0.567,0.414,1.135,0,1.703
			C37.733,112.324,37.741,111.757,37.979,111.189z"/>
		<path fill-rule="evenodd" clip-rule="evenodd" fill="#FCD9C1" d="M38.662,116.259c0.966,0.184,0.732,0.938,0.748,1.574
			C38.889,117.438,38.706,116.881,38.662,116.259z"/>
		<path fill-rule="evenodd" clip-rule="evenodd" fill="#FCD9C1" d="M38.225,114.807c0.703,0.164,0.596,0.53,0.238,0.958
			C38.384,115.445,38.305,115.126,38.225,114.807z"/>
		<path fill-rule="evenodd" clip-rule="evenodd" fill="#FCD9C1" d="M44.231,122.737c0.405-0.396,0.433-0.06,0.477,0.246
			C44.55,122.901,44.391,122.819,44.231,122.737z"/>
		<path fill-rule="evenodd" clip-rule="evenodd" fill="#3E3E3E" d="M16.888,62.243c0.382,1.277,0.379,2.555,0.001,3.833
			C16.589,64.799,16.582,63.521,16.888,62.243z"/>
		<path fill-rule="evenodd" clip-rule="evenodd" fill="#E1BB9A" d="M68.223,78.083c-2.654,0.037-5.274,0.54-7.941,0.497
			c-3.386-0.055-6.703-0.713-10.063-0.975c-0.166-0.474-0.332-0.948-0.498-1.422c0.976-0.951,2.192-0.506,3.271-0.427
			c0.863,0.063,1.733,0.207,2.596,0.148c1.594-0.109,3.148,0.377,4.738,0.243c2.646,0.005,5.291,0.01,7.937,0.015
			C68.25,76.803,68.236,77.443,68.223,78.083z"/>
	</g>
</g>
</svg>
